<svg width="64" height="64" viewBox="0 0 64 64" fill="none" xmlns="http://www.w3.org/2000/svg">
<path d="M0 0H63.24V63.24H0V0Z" fill="white" fill-opacity="0.01"/>
<path d="M31.62 57.97C38.8963 57.97 45.4838 55.0206 50.2522 50.2522C55.0207 45.4838 57.97 38.8963 57.97 31.62C57.97 24.3437 55.0207 17.7562 50.2522 12.9877C45.4838 8.21932 38.8963 5.26999 31.62 5.26999C24.3437 5.26999 17.7562 8.21932 12.9877 12.9877C8.21935 17.7562 5.27002 24.3437 5.27002 31.62C5.27002 38.8963 8.21935 45.4838 12.9877 50.2522C17.7562 55.0206 24.3437 57.97 31.62 57.97Z" fill="#FF2F2F" stroke="#FF2F2F" stroke-width="5.27" stroke-linejoin="round"/>
<path fill-rule="evenodd" clip-rule="evenodd" d="M31.62 48.7475C33.4391 48.7475 34.9137 47.2728 34.9137 45.4538C34.9137 43.6347 33.4391 42.16 31.62 42.16C29.8009 42.16 28.3262 43.6347 28.3262 45.4538C28.3262 47.2728 29.8009 48.7475 31.62 48.7475Z" fill="white"/>
<path d="M31.62 15.81V36.89" stroke="white" stroke-width="5.27" stroke-linecap="round" stroke-linejoin="round"/>
</svg>
